<?xml version="1.0" encoding="UTF-8"?>
<svg id="Layer_1" data-name="Layer 1" xmlns="http://www.w3.org/2000/svg" viewBox="0 0 62.22 62.22">
  <defs>
    <style>
      .cls-1 {
        fill: #231f20;
      }
    </style>
  </defs>
  <polygon class="cls-1" points="51.24 29.28 51.24 32.94 62.22 32.94 62.22 62.22 32.94 62.22 32.94 37.86 32.73 37.65 29.28 34.2 28.04 32.94 25.11 30.02 24.38 29.28 18.3 29.28 18.3 32.94 22.87 32.94 29.28 39.36 29.28 62.22 0 62.22 0 32.94 10.99 32.94 10.99 29.28 0 29.28 0 0 29.28 0 29.28 23.84 38.38 32.94 43.93 32.94 43.93 29.28 39.91 29.28 32.94 22.31 32.94 0 62.22 0 62.22 29.28 51.24 29.28"/>
  <polygon class="cls-1" points="32.73 37.64 32.73 37.65 29.28 34.2 32.73 37.64"/>
</svg>