<svg id="Layer_1" data-name="Layer 1" xmlns="http://www.w3.org/2000/svg" viewBox="0 0 63.22 63.22"><polygon points="62.72 37.83 62.72 62.72 37.84 62.72 37.84 42.23 20.99 25.39 16.06 25.39 16.06 37.83 25.39 37.83 25.39 62.72 0.5 62.72 0.5 37.83 9.83 37.83 9.83 25.39 0.5 25.39 0.5 0.5 25.39 0.5 25.39 20.99 42.24 37.83 47.17 37.83 47.17 43.8 53.39 43.8 53.39 37.83 62.72 37.83" fill="#231f20" stroke="#231f20" stroke-miterlimit="10"/><polygon points="62.72 0.5 62.72 25.39 53.39 25.39 53.39 43.8 47.17 43.8 47.17 25.39 37.84 25.39 37.84 0.5 62.72 0.5" fill="#231f20" stroke="#231f20" stroke-miterlimit="10"/></svg>