<?xml version="1.0" encoding="UTF-8"?>
<svg id="Layer_1" data-name="Layer 1" xmlns="http://www.w3.org/2000/svg" viewBox="0 0 62.32 62.32">
  <defs>
    <style>
      .cls-1 {
        fill: #231f20;
        stroke: #231f20;
        stroke-miterlimit: 10;
        stroke-width: .1px;
      }
    </style>
  </defs>
  <polygon class="cls-1" points="51.29 29.33 51.29 32.99 62.27 32.99 62.27 62.27 32.99 62.27 32.99 38.12 32.9 38.03 32.9 38.02 29.33 34.46 29.33 34.45 27.86 32.99 24.41 29.54 24.2 29.33 18.35 29.33 18.35 32.99 22.69 32.99 29.33 39.63 29.33 62.27 .05 62.27 .05 32.99 11.03 32.99 11.03 29.33 .05 29.33 .05 .05 29.33 .05 29.33 24.1 29.59 24.36 32.99 27.76 34.55 29.33 34.56 29.33 38.07 32.85 38.08 32.85 38.22 32.99 43.97 32.99 43.97 29.33 39.73 29.33 32.99 22.58 32.99 .05 62.27 .05 62.27 29.33 51.29 29.33"/>
</svg>