<svg id="Layer_1" data-name="Layer 1" xmlns="http://www.w3.org/2000/svg" viewBox="0 0 88.91 21.66"><defs><style>.cls-1{fill:#231f20;stroke:#231f20;stroke-miterlimit:10;stroke-width:0.25px;}</style></defs><polygon class="cls-1" points="25.89 17.23 25.89 21.52 17.34 21.52 14.77 17.23 25.89 17.23"/><rect class="cls-1" x="75.94" y="17.25" width="12.84" height="4.28"/><polygon class="cls-1" points="17.34 4.41 17.34 8.69 25.89 8.69 25.89 12.96 13.06 12.96 13.06 0.13 25.89 0.13 25.89 4.41 17.34 4.41"/><polygon class="cls-1" points="44 0.14 41.43 4.42 39.72 7.28 38.87 8.7 37.59 10.84 36.3 8.7 35.45 7.26 37.15 4.42 39.72 0.14 44 0.14"/><rect class="cls-1" x="45" y="0.14" width="12.83" height="4.28"/><rect class="cls-1" x="58.83" y="0.14" width="4.28" height="21.39"/><polygon class="cls-1" points="75.94 0.14 75.94 12.98 63.11 12.98 63.11 8.7 71.67 8.7 71.67 4.42 63.11 4.42 63.11 0.14 75.94 0.14"/><rect class="cls-1" x="71.67" y="12.98" width="4.27" height="8.55"/><rect class="cls-1" x="75.94" y="0.14" width="12.84" height="4.28"/><polygon class="cls-1" points="17.34 21.52 13.06 21.52 10.49 17.23 8.78 14.38 7.93 12.96 5.36 8.69 4.5 7.25 2.79 4.41 0.22 0.13 4.5 0.13 7.07 4.41 8.78 7.25 9.64 8.69 12.21 12.96 13.06 14.38 14.77 17.23 17.34 21.52"/><polygon class="cls-1" points="4.5 11.49 4.5 21.52 0.22 21.52 0.22 4.41 0.25 4.41 2.82 8.69 4.5 11.49"/><polygon class="cls-1" points="34.19 16.5 33.74 17.25 31.17 21.52 26.89 21.52 29.46 17.25 31.17 14.38 32.02 12.97 32.08 12.97 34.19 16.5"/><polygon class="cls-1" points="44 21.52 39.72 21.52 37.15 17.25 35.45 14.39 35.44 14.38 34.59 12.97 33.31 10.84 32.02 8.7 31.17 7.28 29.46 4.42 26.89 0.14 31.17 0.14 33.74 4.42 35.44 7.25 35.44 7.28 35.45 7.26 36.3 8.7 37.59 10.84 38.87 12.97 39.72 14.38 41.43 17.25 44 21.52"/><rect class="cls-1" x="45" y="8.68" width="12.83" height="4.28"/><rect class="cls-1" x="45" y="17.25" width="12.83" height="4.28"/></svg>